# xmcd
#
# Track frame offsets:
#	150
#	17632
#	41902
#	63884
#	90143
#	109276
#	124499
#	140589
#
# Disc length: 2110 seconds
#
# Revision: 0
# Processed by: cddbd v1.5.1PL2 Copyright (c) Steve Scherf et al.
# Submitted via: dBpowerAMP V4.0
#
DISCID=6a083c08
DTITLE=Fleetwood Mac - Fleetwood Mac in Chicago - Disc 2
DYEAR=1994
DGENRE=Blues
TTITLE0=I Got The Blues
TTITLE1=Black Jack Blues
TTITLE2=Everyday I Have The Blues
TTITLE3=Rockin' Boogie
TTITLE4=Sugar Mama
TTITLE5=Homework
TTITLE6=Drifting
TTITLE7=Fleetwood Mac
EXTD=
EXTT0=
EXTT1=
EXTT2=
EXTT3=
EXTT4=
EXTT5=
EXTT6=
EXTT7=
PLAYORDER=
